<svg width="29" height="21" viewBox="0 0 29 21" fill="none" xmlns="http://www.w3.org/2000/svg">
<path fill-rule="evenodd" clip-rule="evenodd" d="M0.375 1.75C0.375 1.19772 0.822715 0.75 1.375 0.75H27.625C28.1773 0.75 28.625 1.19772 28.625 1.75C28.625 2.30228 28.1773 2.75 27.625 2.75H1.375C0.822715 2.75 0.375 2.30228 0.375 1.75ZM0.375 10.5C0.375 9.94771 0.822715 9.5 1.375 9.5H27.625C28.1773 9.5 28.625 9.94771 28.625 10.5C28.625 11.0523 28.1773 11.5 27.625 11.5H1.375C0.822715 11.5 0.375 11.0523 0.375 10.5ZM1.375 18.25C0.822715 18.25 0.375 18.6977 0.375 19.25C0.375 19.8023 0.822715 20.25 1.375 20.25H27.625C28.1773 20.25 28.625 19.8023 28.625 19.25C28.625 18.6977 28.1773 18.25 27.625 18.25H1.375Z" fill="white"/>
</svg>
