<svg width="22" height="28" viewBox="0 0 22 28" fill="none" xmlns="http://www.w3.org/2000/svg">
<path d="M18 11.4495V23.4461C18 23.7886 17.945 24.1277 17.8382 24.4441C17.7315 24.7605 17.5749 25.0481 17.3776 25.2902C17.1803 25.5324 16.946 25.7245 16.6882 25.8555C16.4304 25.9866 16.1541 26.0541 15.875 26.0541H3.125C2.56141 26.0541 2.02091 25.7793 1.6224 25.2902C1.22388 24.8011 1 24.1378 1 23.4461V7.79838C1 7.10671 1.22388 6.44336 1.6224 5.95428C2.02091 5.46519 2.56141 5.19043 3.125 5.19043H12.0224" stroke="#FFB342" stroke-width="2" stroke-linecap="round" stroke-linejoin="round"/>
<path d="M21.7779 0.633601C21.698 0.525849 21.6011 0.439098 21.4931 0.378591C21.3851 0.318083 21.2682 0.285076 21.1496 0.281563C21.0309 0.278051 20.9128 0.304105 20.8026 0.358153C20.6923 0.412201 20.5921 0.49312 20.5081 0.59602L19.8316 1.42215C19.7496 1.52283 19.7036 1.65933 19.7036 1.80167C19.7036 1.944 19.7496 2.08051 19.8316 2.18118L20.4518 2.94087C20.4924 2.99099 20.5407 3.03076 20.5939 3.05791C20.6472 3.08504 20.7042 3.09901 20.7618 3.09901C20.8195 3.09901 20.8765 3.08504 20.9297 3.05791C20.9829 3.03076 21.0313 2.99099 21.0719 2.94087L21.7314 2.13554C22.065 1.72684 22.0962 1.0611 21.7779 0.633601ZM18.4639 3.09993L8.59178 15.1934C8.53193 15.2665 8.48842 15.3573 8.46545 15.4571L8.00882 17.1261C7.99788 17.1713 7.9971 17.2195 8.00657 17.2652C8.01605 17.311 8.03541 17.3529 8.06263 17.3862C8.08985 17.4196 8.12391 17.4434 8.16121 17.455C8.19852 17.4666 8.23769 17.4656 8.2746 17.4523L9.63357 16.8919C9.71486 16.8637 9.78888 16.8103 9.84849 16.7369L19.7031 4.62065C19.7943 4.50757 19.8454 4.35492 19.8454 4.19585C19.8454 4.03677 19.7943 3.88412 19.7031 3.77104L19.159 3.09993C19.0667 2.98702 18.9417 2.92362 18.8114 2.92362C18.6811 2.92362 18.5562 2.98702 18.4639 3.09993Z" fill="#FFB342"/>
</svg>
