<svg xmlns="http://www.w3.org/2000/svg" xmlns:xlink="http://www.w3.org/1999/xlink" viewBox="0,0,256,256" width="500px" height="500px"><g fill="#1c2752" fill-rule="nonzero" stroke="none" stroke-width="1" stroke-linecap="butt" stroke-linejoin="miter" stroke-miterlimit="10" stroke-dasharray="" stroke-dashoffset="0" font-family="none" font-weight="none" font-size="none" text-anchor="none" style="mix-blend-mode: normal"><g transform="scale(5.12,5.12)"><path d="M25,2c-12.68213,0 -23,10.31787 -23,23c0,9.88416 6.26758,18.33026 15.03638,21.57697c-0.25256,-2.25159 -0.21295,-5.93903 0.2038,-7.72437c0.39026,-1.677 2.52124,-10.68713 2.52124,-10.68713c0,0 -0.64331,-1.28833 -0.64331,-3.1911c0,-2.99017 1.73242,-5.22119 3.88983,-5.22119c1.83496,0 2.71979,1.37762 2.71979,3.0282c0,1.8457 -1.17346,4.60266 -1.78125,7.15784c-0.5069,2.14093 1.07336,3.88654 3.18365,3.88654c3.82123,0 6.75848,-4.0296 6.75848,-9.84534c0,-5.14758 -3.698,-8.74719 -8.97955,-8.74719c-6.11676,0 -9.70728,4.58856 -9.70728,9.33099c0,1.84735 0.71118,3.82867 1.6001,4.90698c0.17529,0.21332 0.20093,0.39941 0.14886,0.61603c-0.1629,0.67889 -0.52509,2.13928 -0.59705,2.4386c-0.09344,0.39447 -0.31177,0.47632 -0.71863,0.28693c-2.68579,-1.25031 -4.3645,-5.17566 -4.3645,-8.32959c0,-6.78156 4.92682,-13.0108 14.20654,-13.0108c7.45886,0 13.25476,5.31384 13.25476,12.41791c0,7.41003 -4.67291,13.37299 -11.15686,13.37299c-2.17889,0 -4.22638,-1.13202 -4.92676,-2.46918c0,0 -1.07831,4.10486 -1.34045,5.11121c-0.45245,1.74042 -2.38928,5.34601 -3.36157,6.9837c2.22424,0.71851 4.59357,1.11102 7.05377,1.11102c12.68262,0 23,-10.31738 23,-23c0,-12.68213 -10.31738,-23 -23,-23z"></path></g></g></svg>