<svg width="18" height="21" viewBox="0 0 18 21" fill="none" xmlns="http://www.w3.org/2000/svg">
<path d="M12.3161 1.50134C11.4741 0.56339 10.298 0.046875 9 0.046875C7.69504 0.046875 6.51512 0.560265 5.67701 1.49241C4.82983 2.4348 4.41705 3.71561 4.51397 5.09864C4.70608 7.82719 6.71848 10.0468 9 10.0468C11.2815 10.0468 13.2905 7.82763 13.4856 5.09952C13.5838 3.72899 13.1684 2.45088 12.3161 1.50134ZM16.6152 20.0468H1.38482C1.18547 20.0495 0.988051 20.0062 0.806921 19.9203C0.625791 19.8343 0.46551 19.7078 0.337738 19.5499C0.0564959 19.203 -0.0568663 18.7294 0.0270736 18.2504C0.392256 16.1602 1.53194 14.4044 3.32323 13.1718C4.91463 12.0776 6.93049 11.4754 9 11.4754C11.0695 11.4754 13.0854 12.0781 14.6768 13.1718C16.4681 14.404 17.6077 16.1598 17.9729 18.2499C18.0569 18.7289 17.9435 19.2026 17.6623 19.5495C17.5345 19.7075 17.3743 19.8341 17.1931 19.9201C17.012 20.0061 16.8146 20.0494 16.6152 20.0468Z" fill="#1C2752"/>
</svg>
