<svg width="18" height="19" viewBox="0 0 18 19" fill="none" xmlns="http://www.w3.org/2000/svg">
<path d="M9 0.046875C4.02966 0.046875 0 4.07654 0 9.04688C0 14.0172 4.02966 18.0469 9 18.0469C13.9703 18.0469 18 14.0172 18 9.04688C18 4.07654 13.9703 0.046875 9 0.046875ZM13.1538 10.4315H9C8.81639 10.4315 8.6403 10.3586 8.51046 10.2287C8.38063 10.0989 8.30769 9.9228 8.30769 9.73919V3.50841C8.30769 3.32481 8.38063 3.14871 8.51046 3.01887C8.6403 2.88904 8.81639 2.8161 9 2.8161C9.18361 2.8161 9.3597 2.88904 9.48954 3.01887C9.61937 3.14871 9.69231 3.32481 9.69231 3.50841V9.04688H13.1538C13.3375 9.04688 13.5135 9.11981 13.6434 9.24965C13.7732 9.37948 13.8462 9.55558 13.8462 9.73919C13.8462 9.9228 13.7732 10.0989 13.6434 10.2287C13.5135 10.3586 13.3375 10.4315 13.1538 10.4315Z" fill="#1C2752"/>
</svg>
